<?xml version="1.0" encoding="utf-8"?>
<!-- Generator: Adobe Illustrator 26.5.0, SVG Export Plug-In . SVG Version: 6.00 Build 0)  -->
<svg version="1.1" id="Layer_1" xmlns="http://www.w3.org/2000/svg" xmlns:xlink="http://www.w3.org/1999/xlink" x="0px" y="0px"
	 viewBox="0 0 741 156.81" style="enable-background:new 0 0 741 156.81;" xml:space="preserve">
<style type="text/css">
	.st0{fill:#AEBAC7;}
	.st1{fill:#CD792D;}
	.st2{fill-rule:evenodd;clip-rule:evenodd;fill:#AEBAC7;}
	.st3{font-family:'Helvetica';}
	.st4{font-size:14.8549px;}
</style>
<path id="path12709-7-0" class="st0" d="M409.42,76.53c0,6.01-0.86,11.52-2.59,16.51c-1.72,4.95-4.16,9.15-7.29,12.6
	c-2.92,3.27-6.37,5.81-10.35,7.63c-3.93,1.77-8.11,2.65-12.53,2.65c-3.85,0-7.34-0.42-10.48-1.26c-3.09-0.84-6.26-2.14-9.48-3.91
	v31.04h-12.47V40.39h12.47v7.76c3.32-2.79,7.03-5.11,11.14-6.96c4.16-1.9,8.58-2.85,13.26-2.85c8.93,0,15.87,3.38,20.82,10.15
	C406.92,55.2,409.42,64.55,409.42,76.53L409.42,76.53z M396.55,76.86c0-8.93-1.53-15.61-4.58-20.03s-7.74-6.63-14.06-6.63
	c-3.58,0-7.18,0.77-10.81,2.32s-7.1,3.58-10.41,6.1v41.98c3.54,1.59,6.57,2.67,9.09,3.25c2.56,0.57,5.46,0.86,8.69,0.86
	c6.94,0,12.36-2.34,16.25-7.03C394.61,93,396.55,86.06,396.55,76.86L396.55,76.86z"/>
<path id="path12711-6-5" class="st0" d="M491.98,77.46c0,12.07-3.09,21.6-9.28,28.58c-6.19,6.99-14.48,10.48-24.87,10.48
	c-10.48,0-18.81-3.49-25-10.48c-6.15-6.99-9.22-16.51-9.22-28.58c0-12.07,3.07-21.6,9.22-28.58c6.19-7.03,14.52-10.54,25-10.54
	c10.39,0,18.68,3.51,24.87,10.54C488.89,55.86,491.98,65.39,491.98,77.46L491.98,77.46z M479.12,77.46c0-9.59-1.88-16.71-5.64-21.35
	c-3.76-4.69-8.97-7.03-15.65-7.03c-6.76,0-12.03,2.34-15.78,7.03c-3.71,4.64-5.57,11.76-5.57,21.35c0,9.28,1.88,16.34,5.64,21.16
	c3.76,4.77,9,7.16,15.72,7.16c6.63,0,11.83-2.37,15.58-7.1C477.21,93.91,479.12,86.83,479.12,77.46L479.12,77.46z"/>
<path id="path12713-9-6" class="st0" d="M523.88,114.47h-12.47V11.28h12.47V114.47z"/>
<path id="path12715-9-2" class="st0" d="M606.11,114.47h-12.4v-7.89c-1.11,0.75-2.61,1.81-4.51,3.18c-1.86,1.33-3.67,2.39-5.44,3.18
	c-2.08,1.02-4.47,1.86-7.16,2.52c-2.7,0.71-5.86,1.06-9.48,1.06c-6.68,0-12.33-2.21-16.98-6.63c-4.64-4.42-6.96-10.06-6.96-16.91
	c0-5.61,1.19-10.15,3.58-13.59c2.43-3.49,5.88-6.23,10.35-8.22c4.51-1.99,9.93-3.34,16.25-4.05c6.32-0.71,13.11-1.24,20.36-1.59
	V63.6c0-2.83-0.51-5.17-1.53-7.03c-0.97-1.86-2.39-3.32-4.24-4.38c-1.77-1.02-3.89-1.7-6.37-2.06c-2.48-0.35-5.06-0.53-7.76-0.53
	c-3.27,0-6.92,0.44-10.94,1.33c-4.02,0.84-8.18,2.08-12.47,3.71h-0.66V41.98c2.43-0.66,5.95-1.39,10.54-2.19
	c4.6-0.8,9.13-1.19,13.59-1.19c5.22,0,9.75,0.44,13.59,1.33c3.89,0.84,7.25,2.3,10.08,4.38c2.79,2.03,4.91,4.66,6.37,7.89
	c1.46,3.23,2.19,7.23,2.19,12L606.11,114.47z M593.71,96.23V75.6c-3.8,0.22-8.29,0.55-13.46,0.99c-5.13,0.44-9.2,1.08-12.2,1.92
	c-3.58,1.02-6.48,2.61-8.69,4.77c-2.21,2.12-3.32,5.06-3.32,8.82c0,4.24,1.28,7.45,3.85,9.62c2.56,2.12,6.48,3.18,11.74,3.18
	c4.38,0,8.38-0.84,12-2.52C587.26,100.67,590.62,98.62,593.71,96.23z"/>
<path id="path12717-5-8" class="st1" d="M676.34,53.99h-0.66c-1.86-0.44-3.67-0.75-5.44-0.93c-1.72-0.22-3.78-0.33-6.17-0.33
	c-3.85,0-7.56,0.86-11.14,2.59c-3.58,1.68-7.03,3.87-10.35,6.57v52.59h-12.47V40.39h12.47v10.94c4.95-3.98,9.31-6.79,13.06-8.42
	c3.8-1.68,7.67-2.52,11.61-2.52c2.17,0,3.74,0.07,4.71,0.2c0.97,0.09,2.43,0.29,4.38,0.6V53.99z"/>
<g id="g1972-0-7-1" transform="matrix(0.26458333,0,0,0.26458333,65.807205,161.7825)">
	<path id="rect1700-7-62-0-5" class="st2" d="M-242.07-165.11h27.31c3.67,0,6.65,2.98,6.65,6.65v101.17c0,3.67-2.98,6.65-6.65,6.65
		h-27.31c-3.67,0-6.65-2.98-6.65-6.65v-101.17C-248.72-162.13-245.74-165.11-242.07-165.11z"/>
	<g id="g2741-6-8-8" transform="translate(-15.4925,-13.42653)">
		<path id="rect1700-6-1-9-1" class="st2" d="M-163.45-284.62h21.38c5.31,0,9.61,4.3,9.61,9.61v123.34c0,5.31-4.3,9.61-9.61,9.61
			h-21.38c-5.31,0-9.61-4.3-9.61-9.61v-123.34C-173.06-280.32-168.76-284.62-163.45-284.62z"/>
		<path id="rect1700-7-3-8-1-4" class="st2" d="M-166.41-125.78h27.31c3.67,0,6.65,2.98,6.65,6.65v107.11
			c0,3.67-2.98,6.65-6.65,6.65h-27.31c-3.67,0-6.65-2.98-6.65-6.65v-107.11C-173.06-122.81-170.09-125.78-166.41-125.78z"/>
	</g>
	<g id="g2746-7-3-7" transform="translate(-15.5,-13.42653)">
		<path id="rect1700-3-9-6-0" class="st2" d="M-106.24-418.82h27.31c3.67,0,6.65,2.98,6.65,6.65v200.58c0,3.67-2.98,6.65-6.65,6.65
			h-27.31c-3.67,0-6.65-2.98-6.65-6.65v-200.58C-112.89-415.84-109.91-418.82-106.24-418.82z"/>
		<path id="rect1700-7-5-2-5-1" class="st2" d="M-106.24-186.1h27.31c3.67,0,6.65,2.98,6.65,6.65v62.21c0,3.67-2.98,6.65-6.65,6.65
			h-27.31c-3.67,0-6.65-2.98-6.65-6.65v-62.21C-112.89-183.13-109.91-186.1-106.24-186.1z"/>
		<path id="rect1700-7-56-02-2-1" class="st2" d="M-103.28-59.9h21.38c5.31,0,9.61,4.3,9.61,9.61v35.3c0,5.31-4.3,9.61-9.61,9.61
			h-21.38c-5.31,0-9.61-4.3-9.61-9.61v-35.3C-112.89-55.59-108.58-59.9-103.28-59.9z"/>
	</g>
	<g id="g2750-3-4-9" transform="translate(-15.4775,-13.42653)">
		<path id="rect1700-75-5-0" class="st2" d="M-46.1-513.95h27.31c3.67,0,6.65,2.98,6.65,6.65v141.86c0,3.67-2.98,6.65-6.65,6.65
			H-46.1c-3.67,0-6.65-2.98-6.65-6.65V-507.3C-52.74-510.97-49.77-513.95-46.1-513.95z"/>
		<path id="rect1700-9-9-5-9" class="st2" d="M-46.11-341.5h27.34c3.66,0,6.63,2.97,6.63,6.63v192.29c0,3.66-2.97,6.63-6.63,6.63
			h-27.34c-3.66,0-6.63-2.97-6.63-6.63v-192.29C-52.74-338.53-49.77-341.5-46.11-341.5z"/>
	</g>
	<g id="g2755-2-1-7" transform="translate(-15.9748,-13.42653)">
		<path id="rect1700-7-56-2-2-4-3" class="st2" d="M14.56-543.22h27.31c3.67,0,6.65,2.98,6.65,6.65v94.6c0,3.67-2.98,6.65-6.65,6.65
			H14.56c-3.67,0-6.65-2.98-6.65-6.65v-94.6C7.91-540.25,10.89-543.22,14.56-543.22z"/>
		<path id="rect1700-7-56-7-8-0-8" class="st2" d="M14.57-418.69h27.31c3.67,0,6.65,2.98,6.65,6.65v136.12
			c0,3.67-2.98,6.65-6.65,6.65H14.57c-3.67,0-6.65-2.98-6.65-6.65v-136.12C7.93-415.71,10.9-418.69,14.57-418.69z"/>
		<path id="rect1700-7-56-0-97-0-6" class="st2" d="M14.57-249.67h27.31c3.67,0,6.65,2.98,6.65,6.65v122.29
			c0,3.67-2.98,6.65-6.65,6.65H14.57c-3.67,0-6.65-2.98-6.65-6.65v-122.29C7.93-246.7,10.9-249.67,14.57-249.67z"/>
	</g>
	<g id="g2897-3-5-0" transform="translate(-15.1914,-13.42653)">
		<path id="rect1700-7-56-3-612-9-1" class="st2" d="M76.92-566.95h21.38c5.31,0,9.61,4.3,9.61,9.61v177.62
			c0,5.31-4.3,9.61-9.61,9.61H76.92c-5.31,0-9.61-4.3-9.61-9.61v-177.62C67.3-562.64,71.61-566.95,76.92-566.95z"/>
		<path id="rect1700-7-56-3-6-9-5-0" class="st2" d="M76.92-350.5h21.38c5.31,0,9.61,4.3,9.61,9.61v41.22c0,5.31-4.3,9.61-9.61,9.61
			H76.92c-5.31,0-9.61-4.3-9.61-9.61v-41.22C67.3-346.19,71.61-350.5,76.92-350.5z"/>
		<path id="rect1700-7-56-3-0-3-5-0" class="st2" d="M76.92-276.35h21.35c5.31,0,9.61,4.3,9.61,9.61v183.55
			c0,5.31-4.3,9.61-9.61,9.61H76.92c-5.31,0-9.61-4.3-9.61-9.61v-183.55C67.3-272.05,71.61-276.35,76.92-276.35z"/>
	</g>
	<g id="g2903-1-3-8" transform="translate(-14.6084,-13.42653)">
		<path id="rect1700-7-56-3-62-9-9-2" class="st2" d="M136.5-590.66h21.38c5.31,0,9.61,4.3,9.61,9.61v35.3
			c0,5.31-4.3,9.61-9.61,9.61H136.5c-5.31,0-9.61-4.3-9.61-9.61v-35.3C126.89-586.36,131.19-590.66,136.5-590.66z"/>
		<path id="rect1700-7-56-3-61-4-4-1" class="st2" d="M136.5-519.51h21.38c5.31,0,9.61,4.3,9.61,9.61v272.51
			c0,5.31-4.3,9.61-9.61,9.61H136.5c-5.31,0-9.61-4.3-9.61-9.61V-509.9C126.89-515.21,131.19-519.51,136.5-519.51z"/>
		<path id="rect1700-7-56-3-8-7-7-2" class="st2" d="M136.5-208.16h21.38c5.31,0,9.61,4.3,9.61,9.61v73.83
			c0,5.31-4.3,9.61-9.61,9.61H136.5c-5.31,0-9.61-4.3-9.61-9.61v-73.83C126.89-203.86,131.19-208.16,136.5-208.16z"/>
		<path id="rect1700-7-56-3-7-8-7-9" class="st2" d="M136.5-95.48h21.38c5.31,0,9.61,4.3,9.61,9.61v47.15c0,5.31-4.3,9.61-9.61,9.61
			H136.5c-5.31,0-9.61-4.3-9.61-9.61v-47.15C126.89-91.17,131.19-95.48,136.5-95.48z"/>
	</g>
	<g id="g2916-4-4-6" transform="translate(-16.0071,-13.42653)">
		<path id="rect1700-7-56-3-9-5-4-1" class="st2" d="M198.06-110.32h21.38c5.31,0,9.61,4.3,9.61,9.61v85.72
			c0,5.31-4.3,9.61-9.61,9.61h-21.38c-5.31,0-9.61-4.3-9.61-9.61v-85.72C188.45-106.02,192.75-110.32,198.06-110.32z"/>
		<path id="rect1700-7-56-3-02-0-1-8" class="st2" d="M198.06-406.82h21.38c5.31,0,9.61,4.3,9.61,9.61v210.23
			c0,5.31-4.3,9.61-9.61,9.61h-21.38c-5.31,0-9.61-4.3-9.61-9.61V-397.2C188.45-402.51,192.75-406.82,198.06-406.82z"/>
		<path id="rect1700-7-56-3-3-36-8-5" class="st2" d="M198.06-593.63h21.38c5.31,0,9.61,4.3,9.61,9.61v147.96
			c0,5.31-4.3,9.61-9.61,9.61h-21.38c-5.31,0-9.61-4.3-9.61-9.61v-147.96C188.45-589.33,192.75-593.63,198.06-593.63z"/>
	</g>
	<g id="g2921-1-1-8" transform="translate(-15.4245,-13.42653)">
		<path id="rect1700-7-56-3-2-0-2-0" class="st2" d="M257.65-65.83h21.38c5.31,0,9.61,4.3,9.61,9.61v41.22
			c0,5.31-4.3,9.61-9.61,9.61h-21.38c-5.31,0-9.61-4.3-9.61-9.61v-41.22C248.03-61.52,252.34-65.83,257.65-65.83z"/>
		<path id="rect1700-7-56-3-75-6-1-5" class="st2" d="M257.65-590.66h21.38c5.31,0,9.61,4.3,9.61,9.61v251.75
			c0,5.31-4.3,9.61-9.61,9.61h-21.38c-5.31,0-9.61-4.3-9.61-9.61v-251.75C248.03-586.36,252.34-590.66,257.65-590.66z"/>
		<path id="rect1700-7-56-3-92-3-2-6" class="st2" d="M257.65-300.07h21.38c5.31,0,9.61,4.3,9.61,9.61v103.49
			c0,5.31-4.3,9.61-9.61,9.61h-21.38c-5.31,0-9.61-4.3-9.61-9.61v-103.49C248.03-295.77,252.34-300.07,257.65-300.07z"/>
	</g>
	<g id="g2925-2-5-5" transform="translate(-14.8603,-13.42653)">
		<path id="rect1700-7-56-3-28-06-6-5" class="st2" d="M317.25-578.81h21.38c5.31,0,9.61,4.3,9.61,9.61v70.87
			c0,5.31-4.3,9.61-9.61,9.61h-21.38c-5.31,0-9.61-4.3-9.61-9.61v-70.87C307.64-574.5,311.94-578.81,317.25-578.81z"/>
		<path id="rect1700-7-56-3-97-1-3-2" class="st2" d="M317.25-469.1h21.38c5.31,0,9.61,4.3,9.61,9.61v272.5
			c0,5.31-4.3,9.61-9.61,9.61h-21.38c-5.31,0-9.61-4.3-9.61-9.61v-272.5C307.64-464.8,311.94-469.1,317.25-469.1z"/>
	</g>
	<g id="g3033-5-7-2" transform="translate(-15.9327,-13.42653)">
		<path id="rect1700-7-56-3-36-5-4-9" class="st2" d="M378.48-572.87h21.38c5.31,0,9.61,4.3,9.61,9.61v156.87
			c0,5.31-4.3,9.61-9.61,9.61h-21.38c-5.31,0-9.61-4.3-9.61-9.61v-156.87C368.86-568.57,373.17-572.87,378.48-572.87z"/>
		<path id="rect1700-7-56-3-29-4-9-2" class="st2" d="M378.48-377.17h21.38c5.31,0,9.61,4.3,9.61,9.61v130.19
			c0,5.31-4.3,9.61-9.61,9.61h-21.38c-5.31,0-9.61-4.3-9.61-9.61v-130.19C368.86-372.86,373.17-377.17,378.48-377.17z"/>
		<path id="rect1700-7-56-3-31-7-5-0" class="st2" d="M378.48-208.17h21.38c5.31,0,9.61,4.3,9.61,9.61v59.01
			c0,5.31-4.3,9.61-9.61,9.61h-21.38c-5.31,0-9.61-4.3-9.61-9.61v-59.01C368.86-203.87,373.17-208.17,378.48-208.17z"/>
	</g>
	<g id="g3028-6-0-5" transform="translate(-15.9327,-13.42653)">
		<path id="rect1700-7-56-3-1-5-6-3" class="st2" d="M438.28-563.97h21.38c5.31,0,9.61,4.3,9.61,9.61v242.85
			c0,5.31-4.3,9.61-9.61,9.61h-21.38c-5.31,0-9.61-4.3-9.61-9.61v-242.85C428.66-559.66,432.97-563.97,438.28-563.97z"/>
		<path id="rect1700-7-56-3-94-69-4-0" class="st2" d="M438.28-282.28h21.38c5.31,0,9.61,4.3,9.61,9.61v192.44
			c0,5.31-4.3,9.61-9.61,9.61h-21.38c-5.31,0-9.61-4.3-9.61-9.61v-192.44C428.66-277.98,432.97-282.28,438.28-282.28z"/>
	</g>
	<g id="g3038-3-3-4" transform="translate(-15.9327,-13.42653)">
		<path id="rect1700-7-56-3-78-7-1-5" class="st2" d="M498.03-572.87h21.38c5.31,0,9.61,4.3,9.61,9.61v103.49
			c0,5.31-4.3,9.61-9.61,9.61h-21.38c-5.31,0-9.61-4.3-9.61-9.61v-103.49C488.42-568.56,492.73-572.87,498.03-572.87z"/>
		<path id="rect1700-7-56-3-4-4-0-2" class="st2" d="M498.03-430.54h21.38c5.31,0,9.61,4.3,9.61,9.61v302.17
			c0,5.31-4.3,9.61-9.61,9.61h-21.38c-5.31,0-9.61-4.3-9.61-9.61v-302.17C488.42-426.24,492.73-430.54,498.03-430.54z"/>
		<path id="rect1700-7-56-3-5-5-3-0" class="st2" d="M498.03-89.55h21.38c5.31,0,9.61,4.3,9.61,9.61v56.05
			c0,5.31-4.3,9.61-9.61,9.61h-21.38c-5.31,0-9.61-4.3-9.61-9.61v-56.05C488.42-85.25,492.73-89.55,498.03-89.55z"/>
	</g>
	<g id="g3043-2-8-5" transform="translate(-15.9327,-13.42653)">
		<path id="rect1700-7-56-3-03-5-5-5" class="st2" d="M558.19-107.34h21.38c5.31,0,9.61,4.3,9.61,9.61v82.74
			c0,5.31-4.3,9.61-9.61,9.61h-21.38c-5.31,0-9.61-4.3-9.61-9.61v-82.74C548.58-103.04,552.88-107.34,558.19-107.34z"/>
		<path id="rect1700-7-56-3-610-4-4-2" class="st2" d="M558.19-359.38h21.38c5.31,0,9.61,4.3,9.61,9.61v56.06
			c0,5.31-4.3,9.61-9.61,9.61h-21.38c-5.31,0-9.61-4.3-9.61-9.61v-56.06C548.58-355.08,552.88-359.38,558.19-359.38z"/>
		<path id="rect1700-7-56-3-63-7-4-9" class="st2" d="M558.19-575.84h21.38c5.31,0,9.61,4.3,9.61,9.61v177.62
			c0,5.31-4.3,9.61-9.61,9.61h-21.38c-5.31,0-9.61-4.3-9.61-9.61v-177.62C548.58-571.53,552.88-575.84,558.19-575.84z"/>
	</g>
	<g id="g3137-4-1-0" transform="translate(-15.9327,-13.42653)">
		<path id="rect1700-7-56-3-20-4-6-5" class="st2" d="M619.17-561h21.38c5.31,0,9.61,4.3,9.61,9.61v225.07
			c0,5.31-4.3,9.61-9.61,9.61h-21.38c-5.31,0-9.61-4.3-9.61-9.61v-225.07C609.55-556.7,613.86-561,619.17-561z"/>
		<path id="rect1700-7-56-3-615-3-8-9" class="st2" d="M619.17-59.9h21.38c5.31,0,9.61,4.3,9.61,9.61v35.3
			c0,5.31-4.3,9.61-9.61,9.61h-21.38c-5.31,0-9.61-4.3-9.61-9.61v-35.3C609.55-55.59,613.86-59.9,619.17-59.9z"/>
	</g>
	<g id="g3141-0-4-6" transform="translate(-15.9327,-13.42653)">
		<path id="rect1700-7-56-3-54-78-6-8" class="st2" d="M678.48-543.21h21.38c5.31,0,9.61,4.3,9.61,9.61v56.06
			c0,5.31-4.3,9.61-9.61,9.61h-21.38c-5.31,0-9.61-4.3-9.61-9.61v-56.06C668.87-538.91,673.17-543.21,678.48-543.21z"/>
		<path id="rect1700-7-56-3-76-6-8-0" class="st2" d="M678.48-448.34h21.38c5.31,0,9.61,4.3,9.61,9.61v106.46
			c0,5.31-4.3,9.61-9.61,9.61h-21.38c-5.31,0-9.61-4.3-9.61-9.61v-106.46C668.87-444.04,673.17-448.34,678.48-448.34z"/>
	</g>
	<g id="g3146-8-8-0" transform="translate(-15.9327,-13.42653)">
		<path id="rect1700-7-56-3-56-8-3-6" class="st2" d="M739.41-528.41h21.38c5.31,0,9.61,4.3,9.61,9.61v35.3
			c0,5.31-4.3,9.61-9.61,9.61h-21.38c-5.31,0-9.61-4.3-9.61-9.61v-35.3C729.79-524.1,734.1-528.41,739.41-528.41z"/>
		<path id="rect1700-7-56-3-93-4-6-1" class="st2" d="M739.41-457.24h21.38c5.31,0,9.61,4.3,9.61,9.61v32.33
			c0,5.31-4.3,9.61-9.61,9.61h-21.38c-5.31,0-9.61-4.3-9.61-9.61v-32.33C729.79-452.93,734.1-457.24,739.41-457.24z"/>
		<path id="rect1700-7-56-3-74-3-8-0" class="st2" d="M739.41-389.04h21.38c5.31,0,9.61,4.3,9.61,9.61v53.08
			c0,5.31-4.3,9.61-9.61,9.61h-21.38c-5.31,0-9.61-4.3-9.61-9.61v-53.08C729.79-384.74,734.1-389.04,739.41-389.04z"/>
	</g>
	<path id="rect1700-7-56-3-52-1-6-9" class="st2" d="M783.63-524.03h21.38c5.31,0,9.61,4.3,9.61,9.61v183.55
		c0,5.31-4.3,9.61-9.61,9.61h-21.38c-5.31,0-9.61-4.3-9.61-9.61v-183.55C774.02-519.73,778.32-524.03,783.63-524.03z"/>
	<path id="rect1700-7-56-3-547-4-6-3" class="st2" d="M843.41-470.67h21.38c5.31,0,9.61,4.3,9.61,9.61v124.24
		c0,5.31-4.3,9.61-9.61,9.61h-21.38c-5.31,0-9.61-4.3-9.61-9.61v-124.24C833.8-466.36,838.1-470.67,843.41-470.67z"/>
	<path id="rect1700-7-56-3-44-9-0-9" class="st2" d="M902.72-402.47h21.38c5.31,0,9.61,4.3,9.61,9.61v35.3
		c0,5.31-4.3,9.61-9.61,9.61h-21.38c-5.31,0-9.61-4.3-9.61-9.61v-35.3C893.11-398.16,897.41-402.47,902.72-402.47z"/>
</g>
<path id="path12719-5-7" class="st1" d="M741,93.11c0,6.76-2.81,12.31-8.42,16.65c-5.57,4.33-13.2,6.5-22.88,6.5
	c-5.48,0-10.52-0.64-15.12-1.92c-4.55-1.33-8.38-2.76-11.47-4.31V96.03h0.66c3.93,2.96,8.31,5.33,13.13,7.1
	c4.82,1.72,9.44,2.59,13.86,2.59c5.48,0,9.77-0.88,12.87-2.65c3.09-1.77,4.64-4.55,4.64-8.36c0-2.92-0.84-5.13-2.52-6.63
	c-1.68-1.5-4.91-2.79-9.68-3.85c-1.77-0.4-4.09-0.86-6.96-1.39c-2.83-0.53-5.42-1.11-7.76-1.72c-6.5-1.72-11.12-4.24-13.86-7.56
	c-2.7-3.36-4.05-7.47-4.05-12.33c0-3.05,0.62-5.92,1.86-8.62c1.28-2.7,3.21-5.11,5.77-7.23c2.48-2.08,5.61-3.71,9.42-4.91
	c3.85-1.24,8.13-1.86,12.87-1.86c4.42,0,8.89,0.55,13.4,1.66c4.55,1.06,8.33,2.37,11.34,3.91V57.5h-0.66
	c-3.18-2.34-7.05-4.31-11.61-5.9c-4.55-1.64-9.02-2.45-13.4-2.45c-4.55,0-8.4,0.88-11.54,2.65c-3.14,1.72-4.71,4.31-4.71,7.76
	c0,3.05,0.95,5.35,2.85,6.9c1.86,1.55,4.86,2.81,9.02,3.78c2.3,0.53,4.86,1.06,7.69,1.59c2.87,0.53,5.26,1.02,7.16,1.46
	c5.79,1.33,10.26,3.6,13.4,6.83C739.43,83.39,741,87.72,741,93.11L741,93.11z"/>
<text transform="matrix(1 0 0 1 581.9006 143.1648)" class="st0 st3 st4">https://pola.rs</text>
</svg>
